<?xml version="1.0" standalone="no"?>
<!DOCTYPE svg PUBLIC "-//W3C//DTD SVG 20010904//EN"
 "http://www.w3.org/TR/2001/REC-SVG-20010904/DTD/svg10.dtd">
<svg version="1.0" xmlns="http://www.w3.org/2000/svg"
 width="512.000000pt" height="512.000000pt" viewBox="0 0 512.000000 512.000000"
 preserveAspectRatio="xMidYMid meet">

<g transform="translate(0.000000,512.000000) scale(0.100000,-0.100000)"
fill="#000000" stroke="none">
<path d="M363 4900 c-170 -25 -321 -170 -353 -339 -14 -74 -14 -3928 0 -4002
33 -173 182 -314 362 -339 84 -13 4292 -13 4376 0 180 25 329 166 362 339 14
74 14 3928 0 4002 -33 173 -182 314 -362 339 -76 11 -4310 11 -4385 0z m4449
-245 c23 -17 54 -51 68 -75 l25 -45 0 -1975 0 -1975 -25 -45 c-14 -24 -45 -58
-68 -75 l-44 -30 -2208 0 -2208 0 -44 30 c-23 17 -54 51 -68 75 l-25 45 0
1975 0 1975 22 42 c23 43 69 84 113 102 16 6 792 9 2222 8 l2196 -2 44 -30z"/>
<path d="M595 4467 c-64 -29 -77 -116 -26 -168 28 -28 33 -29 124 -29 93 0 96
1 126 31 42 42 43 95 2 141 -28 32 -33 33 -113 36 -54 1 -94 -3 -113 -11z"/>
<path d="M1134 4470 c-35 -14 -64 -59 -64 -101 0 -29 7 -45 31 -68 30 -30 33
-31 126 -31 91 0 96 1 124 29 54 54 36 146 -33 170 -36 13 -154 13 -184 1z"/>
<path d="M4334 4470 c-35 -14 -64 -59 -64 -101 0 -29 7 -45 31 -68 30 -30 33
-31 126 -31 91 0 96 1 124 29 54 54 36 146 -33 170 -36 13 -154 13 -184 1z"/>
<path d="M461 4019 c-42 -42 -43 -95 -2 -141 l29 -33 2072 0 2072 0 29 33 c41
46 40 99 -2 141 l-31 31 -2068 0 -2068 0 -31 -31z"/>
<path d="M1620 2869 c-160 -31 -299 -173 -330 -339 -6 -30 -10 -224 -10 -447
0 -434 0 -437 61 -469 40 -20 88 -12 120 22 23 25 24 32 29 207 l5 182 213 3
212 2 0 -170 c0 -190 7 -217 61 -246 43 -22 91 -11 123 27 l26 31 0 231 c1
589 0 623 -19 680 -72 210 -276 328 -491 286z m175 -224 c41 -17 84 -62 106
-110 15 -32 19 -65 19 -167 l0 -128 -215 0 -215 0 0 105 c0 153 12 198 70 256
67 66 145 81 235 44z"/>
<path d="M2414 2871 c-12 -5 -31 -22 -43 -37 -21 -27 -21 -30 -21 -595 l0
-567 26 -31 c32 -38 80 -49 123 -27 54 29 61 56 61 246 l0 170 140 0 c115 0
149 3 193 20 73 27 130 79 164 148 28 57 28 58 28 257 0 190 -1 202 -24 248
-31 63 -83 114 -151 146 -53 25 -62 26 -265 28 -115 1 -220 -2 -231 -6z m388
-211 c69 -19 78 -43 78 -202 0 -208 -9 -218 -200 -218 l-120 0 0 215 0 215
103 0 c56 0 119 -5 139 -10z"/>
<path d="M3258 2864 c-65 -35 -73 -121 -17 -168 26 -22 40 -26 100 -26 l69 0
0 -430 0 -430 -69 0 c-60 0 -74 -4 -100 -26 -57 -48 -47 -135 19 -169 43 -22
477 -22 520 0 66 34 76 121 19 169 -26 22 -40 26 -100 26 l-69 0 0 430 0 430
69 0 c60 0 74 4 100 26 57 48 47 135 -19 169 -42 22 -482 21 -522 -1z"/>
</g>
</svg>
