<?xml version="1.0" standalone="no"?>
<!DOCTYPE svg PUBLIC "-//W3C//DTD SVG 20010904//EN"
 "http://www.w3.org/TR/2001/REC-SVG-20010904/DTD/svg10.dtd">
<svg version="1.0" xmlns="http://www.w3.org/2000/svg"
 width="512.000000pt" height="512.000000pt" viewBox="0 0 512.000000 512.000000"
 preserveAspectRatio="xMidYMid meet">

<g transform="translate(0.000000,512.000000) scale(0.100000,-0.100000)"
fill="#000000" stroke="none">
<path d="M1535 5104 c-60 -21 -114 -71 -141 -128 l-24 -51 0 -658 c0 -713 -2
-686 55 -762 15 -19 52 -47 83 -62 l57 -28 995 0 c988 0 995 0 1040 21 56 26
107 76 131 129 17 37 19 82 19 700 l0 660 -24 51 c-27 59 -82 107 -145 129
-65 22 -1984 21 -2046 -1z m2026 -183 c16 -19 19 -40 19 -127 l0 -104 -1020 0
-1020 0 0 101 c0 107 8 135 43 149 12 5 444 8 990 7 l969 -2 19 -24z m19 -844
l0 -444 -26 -24 -26 -24 -968 0 -968 0 -26 24 -26 24 0 444 0 443 1020 0 1020
0 0 -443z"/>
<path d="M1880 4251 c-67 -24 -143 -99 -159 -157 -14 -51 -14 -117 1 -166 16
-53 78 -121 136 -150 42 -21 61 -23 187 -23 126 0 145 3 193 24 89 40 152 138
152 236 0 87 -65 186 -148 226 -40 20 -65 24 -177 26 -109 3 -139 0 -185 -16z
m285 -166 c58 -23 70 -90 25 -135 -18 -18 -34 -20 -144 -20 -123 0 -125 0
-145 26 -38 49 -19 116 39 137 33 12 191 7 225 -8z"/>
<path d="M2614 4260 c-55 -22 -70 -95 -29 -135 l24 -25 380 0 380 0 20 26 c29
37 27 85 -5 115 l-26 24 -361 2 c-199 1 -372 -2 -383 -7z"/>
<path d="M2950 3913 c-66 -34 -63 -120 6 -149 30 -13 73 -15 220 -12 177 3
183 4 208 27 36 34 36 88 0 122 -25 23 -30 24 -212 27 -164 2 -191 1 -222 -15z"/>
<path d="M905 4600 c-11 -4 -84 -73 -162 -152 -192 -194 -192 -172 5 -370 138
-138 151 -148 186 -148 50 0 86 36 86 85 0 31 -12 47 -107 145 l-106 111 106
108 c89 90 107 113 107 139 0 44 -9 61 -41 77 -31 17 -45 18 -74 5z"/>
<path d="M4132 4585 c-25 -21 -32 -35 -32 -62 0 -32 11 -48 107 -144 l106
-108 -106 -111 c-98 -101 -107 -113 -107 -148 0 -51 32 -82 86 -82 37 0 46 7
186 148 197 199 197 176 1 374 -167 167 -187 178 -241 133z"/>
<path d="M180 3145 c-57 -18 -124 -74 -153 -129 -21 -39 -22 -52 -22 -286 l0
-245 27 -46 c31 -53 76 -94 128 -118 32 -14 182 -16 1540 -16 1710 0 1560 -8
1643 85 64 71 69 98 65 365 -3 195 -6 235 -20 261 -24 44 -73 91 -122 117
l-41 22 -1500 2 c-1264 1 -1507 0 -1545 -12z m3034 -184 l26 -24 0 -203 c0
-200 0 -203 -24 -231 l-24 -28 -1454 -3 c-799 -1 -1468 0 -1487 3 -18 4 -44
17 -57 30 -24 24 -24 27 -24 222 0 213 4 233 54 253 11 5 676 8 1493 7 l1471
-2 26 -24z"/>
<path d="M3789 3153 c-54 -8 -132 -66 -166 -121 -40 -67 -46 -122 -42 -354 4
-171 5 -176 34 -234 36 -71 98 -117 179 -134 37 -7 223 -10 592 -8 588 3 569
1 642 63 18 15 45 48 60 74 l27 46 0 245 c0 234 -1 247 -22 286 -12 23 -41 58
-65 78 -76 66 -80 66 -677 65 -295 -1 -548 -4 -562 -6z m476 -423 l0 -255
-227 0 -228 0 -27 28 -28 27 -3 174 c-2 106 1 189 8 214 18 69 31 72 285 69
l220 -2 0 -255z m661 227 c24 -28 24 -31 24 -223 0 -121 -4 -203 -11 -216 -22
-41 -65 -48 -289 -48 l-210 0 0 261 0 260 231 -3 231 -3 24 -28z"/>
<path d="M142 2104 c-62 -31 -106 -81 -128 -146 -13 -39 -15 -88 -12 -270 3
-206 5 -226 25 -263 25 -47 74 -95 123 -121 34 -18 94 -19 1540 -22 1654 -3
1554 -6 1632 58 20 17 48 53 62 82 26 51 26 54 26 282 0 211 -2 235 -21 276
-27 60 -64 98 -124 126 l-50 24 -1511 0 -1510 0 -52 -26z m3073 -169 c25 -24
25 -25 25 -224 0 -110 -3 -207 -6 -216 -18 -47 34 -45 -1534 -45 l-1472 0 -29
29 -29 29 0 192 c0 194 8 239 42 253 7 3 680 6 1496 6 l1483 1 24 -25z"/>
<path d="M3752 2117 c-52 -16 -128 -90 -149 -145 -15 -40 -18 -78 -18 -272 0
-244 3 -261 60 -328 15 -18 48 -45 74 -60 l46 -27 585 0 c581 0 585 0 625 22
47 25 95 74 121 123 17 31 19 64 22 258 3 182 1 231 -12 270 -22 65 -66 115
-128 146 l-52 26 -570 -1 c-374 -1 -583 -5 -604 -12z m1153 -163 c38 -15 45
-55 45 -254 l0 -192 -29 -29 -29 -29 -542 0 -541 0 -24 24 c-33 33 -37 68 -33
266 l3 172 28 24 28 24 539 0 c296 0 546 -3 555 -6z"/>
<path d="M3110 1006 c-84 -24 -164 -70 -225 -131 -285 -285 -153 -759 240
-860 50 -13 167 -15 797 -15 493 0 755 4 790 11 168 34 321 170 379 334 97
275 -68 585 -352 660 -74 20 -1558 20 -1629 1z m1658 -195 c70 -38 120 -92
154 -167 31 -68 31 -198 0 -267 -30 -66 -104 -141 -171 -174 l-56 -28 -745 -3
c-740 -3 -745 -3 -813 19 -193 62 -288 279 -203 465 38 83 123 156 216 185 14
4 369 7 790 6 l765 -2 63 -34z"/>
</g>
</svg>
