<?xml version="1.0" standalone="no"?>
<!DOCTYPE svg PUBLIC "-//W3C//DTD SVG 20010904//EN"
 "http://www.w3.org/TR/2001/REC-SVG-20010904/DTD/svg10.dtd">
<svg version="1.0" xmlns="http://www.w3.org/2000/svg"
 width="512.000000pt" height="512.000000pt" viewBox="0 0 512.000000 512.000000"
 preserveAspectRatio="xMidYMid meet">

<g transform="translate(0.000000,512.000000) scale(0.100000,-0.100000)"
fill="#000000" stroke="none">
<path d="M345 5096 c-84 -21 -147 -57 -211 -121 -65 -65 -105 -136 -123 -223
-16 -76 -16 -4309 0 -4384 37 -172 175 -310 347 -347 75 -16 4328 -16 4404 0
170 36 311 178 347 347 16 76 16 4309 0 4384 -37 172 -176 311 -347 347 -81
17 -4349 14 -4417 -3z m4395 -306 c26 -13 47 -34 60 -60 19 -37 20 -58 20
-430 l0 -390 -2260 0 -2260 0 0 393 c1 442 0 437 76 483 l39 24 2143 0 c2128
0 2143 0 2182 -20z m80 -2770 c0 -1575 0 -1591 -20 -1630 -13 -26 -34 -47 -60
-60 -39 -20 -54 -20 -2181 -20 l-2141 0 -40 22 c-24 14 -48 38 -59 60 -18 36
-19 86 -19 1628 l0 1590 2260 0 2260 0 0 -1590z"/>
<path d="M688 4489 c-43 -22 -78 -81 -78 -129 0 -76 74 -150 150 -150 76 0
150 74 150 150 0 50 -35 107 -80 130 -49 25 -94 25 -142 -1z"/>
<path d="M1288 4489 c-43 -22 -78 -81 -78 -129 0 -76 74 -150 150 -150 76 0
150 74 150 150 0 50 -35 107 -80 130 -49 25 -94 25 -142 -1z"/>
<path d="M1888 4489 c-43 -22 -78 -81 -78 -129 0 -50 35 -107 80 -130 21 -11
53 -20 70 -20 76 0 150 74 150 150 0 50 -35 107 -80 130 -49 25 -94 25 -142
-1z"/>
<path d="M3388 4489 c-43 -22 -78 -81 -78 -129 0 -50 35 -107 80 -130 38 -19
58 -20 520 -20 462 0 482 1 520 20 45 23 80 80 80 130 0 50 -35 107 -80 130
-38 19 -57 20 -522 20 -461 -1 -485 -2 -520 -21z"/>
<path d="M2936 3137 c-26 -14 -47 -37 -62 -67 -12 -25 -223 -514 -468 -1087
-270 -631 -446 -1054 -446 -1073 0 -50 35 -107 80 -130 79 -41 163 -13 204 68
72 144 916 2135 916 2162 0 50 -35 107 -80 130 -51 26 -95 25 -144 -3z"/>
<path d="M1594 2692 c-17 -9 -205 -156 -417 -326 -398 -318 -417 -337 -417
-406 0 -69 19 -88 417 -406 212 -170 400 -317 417 -326 92 -51 216 25 216 131
0 68 -23 92 -342 346 -169 136 -308 251 -308 255 0 4 139 119 308 255 319 254
342 278 342 346 0 106 -124 182 -216 131z"/>
<path d="M3388 2689 c-42 -22 -78 -81 -78 -128 0 -68 23 -92 342 -346 169
-136 308 -251 308 -255 0 -4 -139 -119 -308 -255 -319 -254 -342 -278 -342
-346 0 -106 124 -182 216 -131 17 9 205 156 417 326 398 318 417 337 417 406
0 69 -19 88 -417 406 -212 170 -400 317 -417 326 -41 23 -92 22 -138 -3z"/>
</g>
</svg>
