<?xml version="1.0" encoding="utf-8"?>
<!-- Svg Vector Icons : http://www.onlinewebfonts.com/icon -->
<!DOCTYPE svg PUBLIC "-//W3C//DTD SVG 1.1//EN" "http://www.w3.org/Graphics/SVG/1.1/DTD/svg11.dtd">
<svg version="1.1" xmlns="http://www.w3.org/2000/svg" xmlns:xlink="http://www.w3.org/1999/xlink" x="0px" y="0px" viewBox="0 0 1000 1000" enable-background="new 0 0 1000 1000" xml:space="preserve">
<metadata> Svg Vector Icons : http://www.onlinewebfonts.com/icon </metadata>
<g><g transform="translate(0.000000,511.000000) scale(0.100000,-0.100000)"><path d="M3307.6,4757.1c-1323.1-202.2-2442.1-1084.3-2935.1-2313c-562.4-1402.1-238.8-2992.9,828.1-4056c651-649,1459.8-1018.8,2390.1-1092c602.8-50.1,1282.7,73.2,1827.7,327.4l163.7,77l-227.3,271.5c-181,215.7-234.9,269.6-265.8,261.9c-21.2-5.8-121.3-38.5-223.4-77c-377.5-134.8-783.8-190.7-1223-161.8c-1398.2,86.7-2563.4,1144-2802.2,2540.3c-53.9,312-44.3,847.4,19.3,1130.5c134.8,604.7,406.4,1103.6,839.7,1535c340.9,339,714.5,573.9,1163.3,729.9c365.9,127.1,537.3,154.1,993.8,154.1c344.7,0,433.3-5.8,599-42.4c1221-263.9,2135.8-1176.7,2397.8-2390.1c50.1-235,69.3-747.3,38.5-993.8c-67.4-506.5-260-991.8-562.4-1413.6l-115.6-159.9l229.2-244.6c127.1-132.9,238.8-242.7,250.4-242.7c28.9,0,233,269.6,360.1,473.8c978.4,1581.2,643.3,3647.7-789.6,4847.5C5726.5,4370,5083.3,4656.9,4384.2,4759C4126.1,4797.5,3559.9,4797.5,3307.6,4757.1z"/><path d="M3760.2,3426.3c-102.1-63.6-115.6-92.5-125.2-298.5l-9.6-192.6l-148.3-34.7c-294.7-69.3-581.6-265.8-695.2-473.8c-142.5-263.8-144.4-616.3-1.9-895.5c67.4-131,236.9-308.2,381.3-396.7c65.5-38.5,196.5-102.1,290.8-140.6l173.3-69.3l5.8-583.5l3.9-581.6l-71.3,13.5c-177.2,32.7-400.6,144.4-566.2,283.1c-157.9,132.9-281.2,136.7-404.4,13.5c-132.9-132.9-123.3-261.9,28.9-406.4c196.5-190.7,493-342.8,822.4-425.6l181-46.2l9.6-215.7l9.6-217.6l71.3-65.5c63.5-57.8,84.7-65.5,173.3-65.5c119.4,0,211.9,48.1,256.1,132.9c19.3,40.4,28.9,113.6,28.9,250.4v194.5l53.9,11.6c154.1,32.7,335.1,96.3,446.8,154.1c391,206.1,579.7,570.1,520,1011.1c-55.8,427.5-323.5,706.8-864.7,903.3l-146.4,53.9l-5.8,529.6l-3.9,529.6l129-28.9c73.2-15.4,194.5-59.7,273.5-94.4c94.4-44.3,171.4-65.5,229.2-65.5c77,0,96.3,9.6,159.9,77c42.4,44.3,79,104,86.7,142.5c13.5,82.8-17.3,184.9-75.1,236.9c-102.1,94.4-416,217.6-658.7,258.1l-144.4,25v163.7c0,129-7.7,179.1-36.6,225.3C4068.3,3451.3,3877.7,3497.5,3760.2,3426.3z M3635,1949.1c0-479.6,7.7-466.1-188.7-339c-156,102.1-215.7,202.2-215.7,365.9c0,69.3,11.6,142.5,28.9,175.3c36.6,69.3,132.9,144.4,233,181C3644.6,2388.2,3635,2413.2,3635,1949.1z M4339.9,683.8c213.8-104,315.8-250.4,315.8-454.5c0-206.1-154.1-371.7-408.3-443l-73.2-19.3v489.2c0,319.7,7.7,489.2,19.3,489.2S4270.5,718.4,4339.9,683.8z"/><path d="M5143-604.7c-90.5-57.8-148.3-190.7-132.9-302.4c23.1-183,105.9-298.5,937.9-1313.5c1020.7-1248,918.6-1115.1,874.4-1147.8c-86.7-63.6-329.3-9.6-587.4,127.1c-306.2,163.7-344.7,179.1-479.5,179.1c-165.6,1.9-256.2-30.8-331.3-115.6c-52-61.6-59.7-80.9-50.1-152.1c11.6-111.7,44.3-156,221.5-308.1c460.3-394.8,1145.9-743.4,1716-878.2c242.7-55.8,760.7-69.3,993.8-25c741.5,136.7,1369.3,599,1542.7,1132.4c44.3,132.9,52,192.6,52,379.4c0,240.7-28.9,402.5-113.6,635.5c-123.3,342.8-406.4,816.6-633.6,1057.3c-288.9,306.2-658.7,398.7-1078.5,271.5c-315.9-98.2-737.6-371.7-1076.6-703l-171.4-165.6l-267.7,265.8c-148.3,146.4-369.8,379.4-493,516.1c-304.3,340.9-452.6,481.5-568.1,539.3C5374.1-550.7,5231.6-546.9,5143-604.7z"/></g></g>
</svg>