<?xml version="1.0" standalone="no"?>
<!DOCTYPE svg PUBLIC "-//W3C//DTD SVG 20010904//EN"
 "http://www.w3.org/TR/2001/REC-SVG-20010904/DTD/svg10.dtd">
<svg version="1.0" xmlns="http://www.w3.org/2000/svg"
 width="512.000000pt" height="512.000000pt" viewBox="0 0 512.000000 512.000000"
 preserveAspectRatio="xMidYMid meet">

<g transform="translate(0.000000,512.000000) scale(0.100000,-0.100000)"
fill="#000000" stroke="none">
<path d="M1578 5104 c-191 -46 -355 -203 -404 -389 -11 -41 -14 -428 -14
-2155 0 -1409 4 -2120 11 -2150 43 -189 229 -364 423 -399 40 -7 362 -11 965
-11 995 0 985 0 1109 61 80 39 186 144 229 225 67 126 63 -26 63 2284 0 2265
3 2146 -51 2253 -48 95 -143 189 -241 239 -116 59 -101 58 -1110 57 -750 -1
-934 -3 -980 -15z m519 -314 c31 -11 53 -45 53 -81 0 -31 -44 -69 -80 -69 -36
0 -80 38 -80 69 0 34 22 70 49 80 14 5 26 10 27 10 1 1 15 -4 31 -9z m769 -13
c20 -17 27 -33 27 -57 0 -24 -7 -40 -27 -57 -27 -23 -28 -23 -300 -23 -261 0
-274 1 -300 21 -20 16 -26 29 -26 59 0 30 6 43 26 59 26 20 39 21 300 21 272
0 273 0 300 -23z m854 -2197 l0 -1780 -1140 0 -1140 0 0 1780 0 1780 1140 0
1140 0 0 -1780z m-1075 -1965 c87 -36 139 -116 139 -215 0 -145 -117 -252
-259 -237 -63 6 -100 24 -143 68 -49 50 -67 96 -67 169 1 124 69 203 200 233
27 7 93 -2 130 -18z"/>
</g>
</svg>
